<?xml version="1.0" encoding="utf-8"?>
<!DOCTYPE svg PUBLIC "-//W3C//DTD SVG 1.1//EN" "http://www.w3.org/Graphics/SVG/1.1/DTD/svg11.dtd">
<svg version="1.1" id="Ebene_1" xmlns="http://www.w3.org/2000/svg" xmlns:xlink="http://www.w3.org/1999/xlink" x="0px" y="0px"
	 viewBox="0 0 2000 2000" enable-background="new 0 0 2000 2000" xml:space="preserve">
<g>
	<rect fill="#F7C1DA" width="2000" height="2000"/>
	<path d="M487.43,923.0369c-6.149-42.193-66.186-135-66.186-190.27c0-50.958,54.593-91.481,140.63-90.605
		c7.304,0.072,15.018,0.477,23.171,1.249c0,0,51.289-129.06,167.12-135.67c115.83-6.62,172.08,49.635,175.38,59.554
		c43.029,49.6381,9.934,89.354,29.783,125.75c0,0,13.2469,59.025,56.2579,92.385v56.528l-112.49,102.6
		c-21.758,9.924-39.704,19.843-62.869,23.165c-23.166,3.299-115.83-16.551-115.83-16.551s-171.29-90.461-153.88-239.92
		c-7.883-3.634-14.44-5.357-19.826-5.423c-51.033-0.663,21.402,135.11,36.371,203.97c16.545,76.116-38.051,99.282-62.875,125.75
		c-24.819,26.4711-45.543,53.17-66.223,63.0861c-20.676,9.927-115.54,0.2059-62.723-16.755c62.72,16.76,105.78-79.41,94.19-158.84
		L487.43,923.0369z"/>
	<path d="M490.74,1033.8999c-2.127,16.181-7.255,32.4301-17.555,46.743c-5.228,7.052-12,13.361-19.996,18.104
		c-7.993,4.788-17.257,7.4301-26.423,8.521c-9.207,1.103-18.391,0.562-27.127-1.068c-4.381-0.797-8.684-1.7791-12.853-3.02
		c-4.194-1.2579-8.05-2.354-12.884-4.502c-17.88-8.4861-31.801-22.479-38.909-41.949c-3.299-9.697-4.028-21.416-0.29-32.073
		c1.84-5.2761,4.657-10.105,7.967-14.2291c3.207-4.06,7.416-7.812,10.344-10.128c6.968-5.65,14.176-10.766,22.867-14.728
		c8.512-3.904,19.002-6.784,30.107-4.504c11.173,2.182,20.096,9.873,25,17.817l0.488,0.752c0.508,0.747,0.359,0.583,0.56,0.921
		l0.735,1.335c0.6,1.175,1.375,2.587,1.817,3.81c1.022,2.475,1.791,5.277,1.975,8.285c0.594,6.087-2.159,12.678-6.178,16.371
		c-8.245,7.285-17.323,8.676-25.755,9.307c-8.518,0.425-16.774-0.5389-24.741-2.469c8.122-0.9879,16.077-2.3199,23.438-4.72
		c7.194-2.313,14.475-5.9659,17.354-10.657c1.39-2.273,1.487-3.984,0.907-5.92c-0.307-0.987-0.818-2.072-1.588-3.197
		c-0.364-0.632-0.706-0.914-1.088-1.482l-0.959-1.176c-0.089-0.075-0.505-0.666-0.31-0.328l-0.431-0.441
		c-4.562-4.933-9.454-7.781-14.446-7.933c-10.002-0.571-22.823,7.933-33.273,17.676c-3.167,2.951-4.915,4.686-6.644,7.011
		c-1.645,2.223-2.816,4.53-3.528,6.9071c-1.499,4.663-1.274,9.9049,0.606,15.3989c3.6,11.0081,13.7,22.043,24.572,27.802
		c2.435,1.355,6.256,2.808,9.695,4.077c3.5,1.24,6.962,2.429,10.453,3.387c6.974,1.85,13.953,3.13,20.852,3.238
		c13.734,0.1949,27.138-4.6271,38.088-14.7841c11.25-9.84,19.57-23.76,27.15-38.1599L490.74,1033.8999z"/>
	<path d="M1324.6599,931.3099c0,0,86.046-86.023,102.5801-119.12c16.547-33.104,43.028-135.68-19.855-218.41
		c-46.324-59.557-142.29-39.713-172.0701-72.803c-29.788-33.084-66.1909-46.319-66.1909-46.319l-33.0901,39.705
		c0,0-36.4089,13.235-46.3369,29.78c-9.927,16.55-0.011,137.06-16.541,158.84c-16.5371,21.796-59.5651,76.11-59.5651,76.11v62.878
		c0,0,69.4921,49.641,79.42,62.881c9.928,13.235,129.11,29.785,137.35,56.255c18.1901,6.53,94.3099-29.79,94.3099-29.79
		L1324.6599,931.3099z"/>
	<rect x="726.53" y="1664.0499" width="29.975" height="102.85"/>
	<rect x="704.2" y="1664.0499" width="31.433" height="107.8"/>
	<path d="M690.97,1737.1c0,0,60.843,26.526,74.893,23.4139c14.03-3.135-26.527,48.369,71.772,93.614
		c48.561,22.347,32.36,33.8311-6.238,20.274c-39.575-13.866-102.2-53.049-102.2-53.049v53.049h-22.631"/>
	<path d="M679.3699,1742.0599c0,0,64.523,28.123,79.417,24.832c14.897-3.318-28.129,51.275,76.116,99.275
		c51.481,23.6801,34.308,35.869-6.62,21.498c-41.943-14.7111-108.37-56.2579-108.37-56.2579v56.2579h-24"/>
	<path d="M779.343,941.7599c0,0-23.627,131.69-45.366,176.53c-21.7469,44.826-86.052,203.51-114.17,258.11
		c-28.129,54.599-21.124,116.35-34.755,152.23c-12.724,33.4971-22.746,51.136-107.54,89.354
		c-109.29,49.2531,488.35,51.2791,504.77,57.9c16.427,6.619-125.87-323.2-130.83-359.3099c-4.975-36.139,49.635-113.9,39.71-168.5
		c-9.944-54.61-100.94-186.1901-100.94-186.1901"/>
	<path d="M1300.77,1748.5599c0,0-28.6511,61.2881-73.2301,67.265c-44.579,5.978-33.193,42.329-18.855,45.533
		c14.3309,3.175,108.02,6.62,127.12,6.62c19.108,0,0-119.4199,0-119.4199"/>
	<path d="M1304.8199,1768.2699c0,0-29.7999,63.7051-76.1119,69.906c-46.337,6.201-41.3761,50.8831-26.493,54.1899
		c14.8949,3.313,119.14,0,138.98,0c19.8729,0,0-124.09,0-124.09"/>
	<path d="M1324.6599,931.3099c0,0-61.219,47.984-33.0959,95.9711c28.135,47.9729-29.776,0-29.776,0s-28.084-31.4371-31.42-66.186"/>
	<path d="M1298.36,1044.0399c0,0,76.423,277.75,92.9819,292.64h-33.871l33.871,435.16h-179.34l-20.8101-443.4299h-27.0259
		l47.835-271.34c0,0,36.719-37.3331,26.7229-66.2061c0,0,46.55,41.79,59.64,53.1799L1298.36,1044.0399z"/>
	<path d="M1099.6299,1250.6499H1245.23v-95.9629c0,0-167.1001,66.1799-181.99,66.1799c-14.895,0-30.145-18.3729-57.108-18.3729
		s-50.318,17.087-50.318,17.087l-125.86-26.8501l-18.216,57.912h208.98c-0.01,0,29.29,29.78,78.92,0L1099.6299,1250.6499z"/>
	<path d="M894.374,382.14c-0.342-0.752-0.743-1.453-1.166-2.124c-0.411-0.664-0.858-1.315-1.312-1.941
		c-0.876-1.252-1.909-2.374-2.8849-3.479c-2.03-2.182-4.174-4.108-6.468-5.845c-4.464-3.551-9.454-6.224-14.328-8.977
		c-2.423-1.393-4.798-2.897-7.227-4.393c-2.446-1.464-4.969-2.856-7.573-4.137c-5.233-2.512-10.625-4.857-16.151-7.068
		c-2.768-1.088-5.578-2.104-8.406-3.118l-2.288-0.792c-0.801-0.293-1.588-0.588-2.368-0.893c-1.588-0.611-3.152-1.254-4.683-1.958
		c-6.1671-2.854-12.046-6.462-17.286-10.895c-5.225-4.421-9.881-9.603-13.358-15.505c-1.734-2.94-3.244-6.003-4.404-9.184
		c-1.174-3.181-2.021-6.457-2.693-9.712c-1.292-6.568-1.797-13.212-1.481-19.881c0.376-6.655,1.389-13.375,3.54-20.059
		c2.142-6.652,5.544-13.307,10.913-18.851c1.346-1.381,2.793-2.687,4.34-3.921c0.781-0.612,1.576-1.2,2.403-1.771
		c0.824-0.58,1.665-1.14,2.546-1.668c1.74-1.048,3.58-2.013,5.515-2.816l0.178-0.078c0.129-0.04,0.075-0.023,0.118-0.051
		l0.062-0.032l0.265-0.121c0.189-0.089,0.336-0.161,0.565-0.255c0.416-0.175,0.841-0.371,1.24-0.522
		c0.8181-0.319,1.634-0.618,2.4691-0.922c3.339-1.131,6.896-1.823,10.554-2.001c3.663-0.175,7.444,0.095,11.159,1.025
		c3.718,0.858,7.355,2.34,10.72,4.163c1.677,0.927,3.305,1.892,4.837,2.968c1.553,1.057,3.046,2.139,4.43,3.333
		c2.813,2.306,5.259,4.938,7.306,7.737c2.052,2.793,3.68,5.768,5.093,8.739c1.3979,2.992,2.492,6.043,3.396,9.112
		c0.947,3.052,1.63,6.138,2.253,9.207l-0.301,0.101c-1.797-2.676-3.715-5.217-5.756-7.58c-2.021-2.345-4.163-4.521-6.413-6.385
		c-4.481-3.764-9.402-6.204-14.036-6.985c-4.613-0.87-8.934-0.324-13.2289,1.048c-2.1331,0.686-4.2661,1.579-6.3911,2.621
		c-2.116,1.111-4.208,2.515-6.227,4.146c-0.505,0.394-1.016,0.81-1.521,1.229c-0.258,0.209-0.465,0.388-0.669,0.583l-0.083,0.063
		l-0.124,0.089l-0.258,0.175l-0.247,0.172l-0.061,0.034c0.023,0.006-0.146,0.058,0.038,0.017l-0.032,0.052
		c-0.129,0.307-0.264,0.554-0.388,0.83c-0.117,0.279-0.218,0.543-0.33,0.79c-0.422,1.005-0.916,1.774-1.415,2.745
		c-0.988,1.906-1.958,4.353-2.877,7.085c-0.91,2.739-1.757,5.785-2.228,8.943c-0.477,3.175-0.546,6.396-0.459,9.672
		c0.124,3.267,0.396,6.684,1.378,10.249c0.494,1.774,1.197,3.543,2.01,5.403c0.425,0.904,0.847,1.892,1.352,2.833
		c0.247,0.482,0.511,0.95,0.79,1.427c0.276,0.488,0.5569,0.982,0.85,1.476c2.371,3.904,5.615,7.993,9.804,11.403
		c1.034,0.855,2.139,1.651,3.273,2.446c0.571,0.388,1.1479,0.781,1.7339,1.123l0.408,0.264c0.141,0.089,0.342,0.181,0.505,0.275
		l0.135,0.083l0.058,0.029c0,0.006,0.101,0.04,0.026,0.023l0.275,0.146l0.551,0.295c1.476,0.77,2.94,1.582,4.41,2.323l2.205,1.146
		l2.217,1.105c2.954,1.441,5.917,2.845,8.92,4.18c2.982,1.37,5.945,2.822,8.862,4.387c1.45,0.801,2.92,1.588,4.366,2.4l4.404,2.363
		c2.951,1.594,5.88,3.316,8.561,5.449c2.693,2.119,5.027,4.728,7.208,7.45c2.188,2.725,4.062,5.722,5.685,8.819
		c1.542,3.158,2.799,6.468,3.465,9.902c0.365,1.7,0.494,3.457,0.545,5.167c-0.023,1.729-0.141,3.445-0.675,5.076h-0.14V382.14z"/>
	<path d="M874.817,264.62c-1.387-6.184-1.464-12.698-0.419-19.267c0.284-1.628,0.605-3.287,1.042-4.926
		c0.442-1.637,0.947-3.276,1.553-4.898c1.18-3.258,2.716-6.491,4.625-9.615c1.9059-3.115,4.2289-6.083,6.875-8.825
		c1.347-1.358,2.785-2.626,4.287-3.833c1.521-1.157,3.115-2.271,4.76-3.258c1.659-0.965,3.358-1.875,5.11-2.638
		c1.751-0.764,3.528-1.458,5.317-2.047c0.91-0.27,1.809-0.517,2.716-0.752c0.457-0.124,0.904-0.235,1.369-0.319l0.675-0.129
		l0.812-0.146l0.548-0.101l0.293-0.052l0.417-0.06c0.278-0.041,0.554-0.069,0.835-0.098l0.752-0.072
		c0.993-0.083,2.006-0.164,3.011-0.158c1.011,0.006,2.027,0.018,3.052,0.086c1.017,0.083,2.027,0.189,3.046,0.342
		c2.027,0.275,4.04,0.689,6.003,1.223c3.951,1.06,7.76,2.529,11.246,4.45c3.488,1.906,6.691,4.168,9.474,6.764
		c2.805,2.558,5.251,5.357,7.43,8.248c2.165,2.905,4.011,5.946,5.688,9c0.818,1.553,1.604,3.095,2.3459,4.671
		c0.712,1.57,1.386,3.144,2.018,4.751c0.635,1.591,1.197,3.215,1.729,4.843c0.528,1.628,1.005,3.27,1.427,4.932
		c0.885,3.316,1.553,6.709,1.935,10.166c0.775,6.921,0.689,14.254-1.917,21.824c-0.333,0.948-0.704,1.895-1.123,2.831
		c-0.203,0.462-0.433,0.944-0.674,1.404l-0.33,0.611l-0.393,0.724c-1.037,1.8-2.082,3.321-3.187,4.751
		c-2.222,2.828-4.527,5.225-6.861,7.444c-2.34,2.228-4.657,4.289-7.008,6.273c-2.36,1.97-4.717,3.861-7.045,5.75
		c-4.662,3.744-9.313,7.361-13.774,11.099c-8.908,7.473-17.446,15.13-24.2679,24.136c-1.6801,2.259-3.2271,4.616-4.585,7.085
		c-1.363,2.452-2.604,5.016-3.562,7.68c-1.924,5.351-2.905,11.142-2.739,17.122l-0.654,0.103
		c-2.587-5.655-3.508-12.204-2.991-18.718c0.304-3.241,0.904-6.479,1.812-9.632c0.921-3.146,2.115-6.187,3.502-9.126
		c2.816-5.831,6.268-11.323,10.502-15.968c1.065-1.157,2.145-2.279,3.287-3.345c1.134-1.071,2.251-2.142,3.439-3.146
		c2.34-2.035,4.702-3.993,7.042-5.937c4.651-3.936,8.98-8.122,12.729-12.83c1.835-2.4,3.388-5.087,4.594-8.027
		c1.229-2.902,2.216-5.948,3.109-8.713c0.419-1.41,0.858-2.722,1.183-3.991c0.359-1.234,0.434-2.575,0.382-3.718
		c-0.018-0.574-0.083-1.111-0.118-1.539c0-0.118-0.023-0.212-0.046-0.318c0-0.101-0.011-0.187-0.032-0.276
		c-0.006-0.083-0.006-0.169-0.017-0.241c-0.011-0.028-0.029-0.077-0.023-0.106v-0.046h-0.04l-0.072,0.011
		c-0.017-0.011-0.063,0.069-0.006-0.072l0.084-0.264l0.04-0.129l0.022-0.072c0.043-0.081-0.209,0.39-0.117,0.189
		c-0.012-0.078-0.029-0.152-0.052-0.235c-0.029-0.169-0.055-0.365-0.0829-0.589c-0.046-0.439-0.106-0.976-0.158-1.593
		c-0.046-0.611-0.152-1.297-0.241-2.032c-0.207-1.476-0.488-3.146-0.893-4.881c-0.184-0.87-0.419-1.754-0.655-2.652
		c-0.236-0.887-0.511-1.8-0.81-2.693c-0.566-1.817-1.272-3.614-2.082-5.331c-0.83-1.717-1.694-3.388-2.676-4.903
		c-0.993-1.519-2.018-2.934-3.046-4.212c-2.081-2.558-4.028-4.596-5.991-6.238c-0.488-0.416-0.994-0.804-1.522-1.157
		c-0.514-0.399-1.059-0.718-1.63-1.123c-1.146-0.752-2.446-1.588-4.062-2.429c-0.405-0.189-0.841-0.414-1.269-0.583
		c-0.1121-0.058-0.235-0.101-0.335-0.146l-0.23-0.146l-0.118-0.083c-0.069-0.017-0.187-0.035-0.27-0.052l-0.583-0.089l-0.069-0.012
		c-0.071,0,0.293-0.072,0.118-0.043l-0.106-0.029l-0.207-0.052l-0.416-0.106l-0.8409-0.212c-0.566-0.124-1.1281-0.247-1.7-0.359
		c-2.262-0.411-4.599-0.792-7.103-1.051c-2.503-0.264-5.162-0.313-7.883,0.046c-0.672,0.112-1.347,0.229-2.024,0.376
		c-0.342,0.072-0.68,0.152-1.022,0.241l-0.993,0.307c-1.33,0.422-2.619,0.993-3.841,1.685c-2.452,1.37-4.619,3.253-6.459,5.429
		c-0.918,1.091-1.8,2.228-2.635,3.416c-0.836,1.18-1.571,2.432-2.294,3.704c-0.724,1.275-1.358,2.598-1.941,3.95
		c-0.298,0.678-0.58,1.358-0.85,2.047c-0.247,0.686-0.488,1.386-0.712,2.087c-0.913,2.805-1.593,5.739-1.771,8.665l-0.644,0.02
		L874.817,264.62z"/>
	<path d="M999.21,413.02c-0.241-5.01,0.6-10.097,2.311-15.058c0.442-1.234,0.919-2.48,1.476-3.698
		c0.562-1.211,1.188-2.417,1.872-3.606c1.378-2.374,3.003-4.68,4.92-6.85c1.901-2.167,4.117-4.163,6.552-5.937
		c1.229-0.875,2.532-1.665,3.858-2.394c1.35-0.698,2.733-1.347,4.157-1.88c1.424-0.528,2.871-1.011,4.3409-1.364
		c1.464-0.359,2.9391-0.652,4.421-0.858c0.741-0.083,1.4811-0.161,2.217-0.218c0.3669-0.034,0.735-0.057,1.103-0.063l0.5509-0.006
		l0.6541-0.006h0.666l0.334,0.006c0.229,0.006,0.447,0.023,0.666,0.035l0.597,0.057c0.792,0.072,1.585,0.149,2.365,0.29
		c0.781,0.141,1.585,0.287,2.36,0.479c0.786,0.207,1.556,0.425,2.325,0.677c1.545,0.494,3.0551,1.094,4.519,1.774
		c2.9349,1.361,5.6899,3.029,8.1479,5.004c2.457,1.958,4.639,4.163,6.453,6.557c1.838,2.375,3.354,4.886,4.662,7.438
		c1.292,2.555,2.3091,5.173,3.198,7.789c0.4191,1.318,0.827,2.63,1.177,3.954c0.3561,1.32,0.655,2.638,0.931,3.973
		s0.494,2.664,0.684,4.011c0.1891,1.346,0.339,2.687,0.437,4.039c0.235,2.705,0.2931,5.432,0.12,8.182
		c-0.345,5.498-1.412,11.191-4.4669,16.734c-0.391,0.689-0.8101,1.375-1.264,2.059c-0.229,0.336-0.4709,0.663-0.712,0.999
		l-0.344,0.437l-0.402,0.505c-1.057,1.257-2.078,2.296-3.135,3.261c-2.113,1.906-4.244,3.445-6.3619,4.857
		c-2.124,1.413-4.2151,2.71-6.3151,3.927c-2.0959,1.217-4.192,2.369-6.265,3.517c-4.146,2.279-8.251,4.456-12.241,6.761
		c-7.953,4.599-15.641,9.396-22.181,15.48c-1.619,1.53-3.146,3.158-4.5359,4.892c-1.401,1.722-2.71,3.545-3.824,5.492
		c-2.228,3.905-3.783,8.28-4.473,12.954h-0.522c-1.24-4.769-1.065-9.991,0.224-14.989c0.687-2.48,1.594-4.927,2.728-7.249
		c1.1479-2.329,2.4919-4.533,3.974-6.621c2.9969-4.168,6.431-7.961,10.3569-11.001c0.988-0.758,1.9871-1.493,3.021-2.156
		c1.028-0.677,2.05-1.358,3.101-1.981c2.102-1.266,4.2031-2.463,6.293-3.669c4.157-2.417,8.0959-5.087,11.662-8.245
		c1.762-1.616,3.3361-3.491,4.668-5.615c1.354-2.099,2.537-4.327,3.6171-6.374c0.517-1.034,1.033-1.992,1.458-2.931
		c0.448-0.913,0.689-1.946,0.8099-2.854c0.063-0.445,0.0861-0.87,0.121-1.212c0.011-0.086,0.011-0.164,0-0.247
		c0.0221-0.081,0.0221-0.152,0.0221-0.215c0-0.078,0.012-0.138,0-0.195v-0.083v-0.04c0-0.006-0.0121-0.006-0.0221-0.006h-0.058
		c-0.012-0.011-0.063,0.046,0-0.06l0.103-0.192l0.053-0.101l0.028-0.052c0.04-0.054-0.2119,0.282-0.115,0.135
		c0-0.061-0.011-0.124-0.011-0.189c0-0.129,0.011-0.293,0.022-0.462c0.0121-0.362,0.052-0.784,0.098-1.266
		c0.04-0.488,0.046-1.033,0.098-1.616c0.0341-1.183,0.046-2.518-0.0399-3.922c-0.0231-0.706-0.0861-1.424-0.144-2.159
		c-0.069-0.729-0.149-1.464-0.265-2.21c-0.1949-1.487-0.4929-2.98-0.896-4.433c-0.401-1.447-0.85-2.862-1.412-4.186
		c-0.563-1.318-1.16-2.558-1.792-3.692c-1.274-2.271-2.5031-4.128-3.812-5.682c-0.321-0.382-0.666-0.752-1.033-1.105
		c-0.3451-0.376-0.724-0.698-1.103-1.094c-0.792-0.747-1.688-1.576-2.8311-2.443c-0.292-0.207-0.5909-0.437-0.912-0.631
		c-0.0809-0.058-0.161-0.104-0.241-0.158l-0.149-0.146l-0.08-0.072c-0.053-0.028-0.139-0.057-0.207-0.083l-0.437-0.152l-0.058-0.017
		c-0.057-0.012,0.2411-0.012,0.098-0.017l-0.074-0.035l-0.155-0.078l-0.3149-0.135l-0.6211-0.275
		c-0.413-0.184-0.85-0.348-1.2689-0.511c-1.7051-0.637-3.474-1.254-5.386-1.789c-1.9181-0.551-3.979-0.953-6.149-1.039
		c-0.54-0.006-1.079-0.006-1.625,0.017c-0.281,0.011-0.557,0.023-0.832,0.046l-0.8149,0.106c-1.097,0.146-2.171,0.41-3.2271,0.792
		c-2.091,0.724-4.037,1.895-5.766,3.342c-0.861,0.721-1.705,1.487-2.515,2.297c-0.821,0.807-1.562,1.676-2.303,2.575
		c-0.734,0.89-1.406,1.834-2.05,2.811c-0.31,0.488-0.631,0.982-0.93,1.476c-0.29,0.508-0.577,1.019-0.842,1.53
		c-1.094,2.07-2.0229,4.251-2.563,6.508l-0.55-0.15L999.21,413.02z"/>
	<path d="M998.4,507.1899c-0.1671-0.637-0.382-1.234-0.617-1.812c-0.23-0.588-0.488-1.148-0.758-1.688
		c-0.514-1.105-1.159-2.122-1.771-3.109c-1.286-1.975-2.693-3.781-4.232-5.435c-2.994-3.373-6.517-6.132-9.933-8.948
		c-1.697-1.416-3.344-2.908-5.027-4.404c-1.702-1.481-3.479-2.902-5.331-4.263c-3.729-2.661-7.608-5.236-11.607-7.706
		c-2.01-1.229-4.057-2.4-6.121-3.577l-1.668-0.921c-0.583-0.336-1.154-0.677-1.725-1.019c-1.146-0.692-2.274-1.41-3.374-2.173
		c-4.41-3.058-8.5-6.675-11.977-10.843c-3.463-4.151-6.379-8.831-8.283-13.887c-0.953-2.529-1.706-5.122-2.176-7.754
		c-0.488-2.636-0.7-5.294-0.77-7.938c-0.117-5.279,0.394-10.524,1.556-15.675c1.206-5.133,2.917-10.226,5.498-15.135
		c2.575-4.886,6.132-9.601,11.07-13.18c1.231-0.896,2.541-1.711,3.916-2.463c0.689-0.373,1.39-0.724,2.113-1.054
		c0.723-0.347,1.449-0.657,2.205-0.953c1.499-0.577,3.069-1.082,4.679-1.433l0.146-0.037c0.101-0.023,0.061-0.018,0.095-0.029
		l0.063-0.012l0.224-0.066c0.152-0.04,0.276-0.08,0.471-0.118c0.359-0.086,0.712-0.181,1.042-0.241
		c0.68-0.135,1.358-0.264,2.055-0.376c2.7531-0.422,5.616-0.477,8.486-0.118c2.88,0.359,5.785,1.088,8.553,2.317
		c2.782,1.177,5.406,2.828,7.78,4.711c1.177,0.945,2.316,1.921,3.361,2.969c1.0649,1.033,2.082,2.081,2.989,3.204
		c1.88,2.182,3.422,4.562,4.639,7.02c1.218,2.452,2.076,4.998,2.7681,7.504c0.684,2.515,1.1169,5.044,1.401,7.553
		c0.3149,2.506,0.428,5.01,0.5,7.473l-0.247,0.037c-1.0421-2.328-2.188-4.57-3.451-6.68c-1.26-2.104-2.63-4.091-4.1281-5.851
		c-2.974-3.537-6.474-6.115-9.979-7.355c-3.468-1.303-6.913-1.464-10.436-0.993c-1.757,0.247-3.54,0.643-5.332,1.171
		c-1.806,0.574-3.623,1.387-5.423,2.374c-0.445,0.241-0.898,0.488-1.346,0.747c-0.232,0.124-0.417,0.241-0.606,0.365l-0.068,0.04
		l-0.112,0.061l-0.224,0.1l-0.224,0.101l-0.052,0.023c0.017,0.006-0.124,0.023,0.023,0.017l-0.023,0.041
		c-0.146,0.218-0.287,0.388-0.417,0.588c-0.132,0.201-0.247,0.394-0.364,0.571c-0.471,0.735-0.953,1.263-1.476,1.946
		c-1.025,1.347-2.119,3.115-3.207,5.119c-1.085,2.012-2.156,4.269-2.957,6.663c-0.798,2.412-1.298,4.909-1.668,7.467
		c-0.359,2.564-0.605,5.262-0.33,8.17c0.146,1.447,0.454,2.923,0.83,4.487c0.204,0.764,0.399,1.588,0.664,2.395
		c0.129,0.399,0.27,0.81,0.425,1.223c0.152,0.411,0.292,0.841,0.456,1.258c1.3181,3.362,3.281,6.99,6.075,10.223
		c0.694,0.807,1.447,1.576,2.216,2.343c0.388,0.376,0.787,0.764,1.194,1.111l0.281,0.258c0.095,0.089,0.241,0.187,0.354,0.293
		l0.095,0.072l0.04,0.034c0,0.012,0.072,0.046,0.012,0.023l0.195,0.155l0.393,0.304c1.048,0.798,2.07,1.622,3.115,2.406l1.559,1.191
		l1.582,1.154c2.099,1.539,4.215,3.035,6.374,4.479c2.127,1.476,4.24,3.018,6.296,4.628c1.024,0.818,2.058,1.628,3.071,2.469
		l3.1089,2.44c2.0811,1.642,4.123,3.382,5.9141,5.403c1.812,2.024,3.275,4.37,4.605,6.781c1.324,2.42,2.38,5.016,3.215,7.654
		c0.775,2.664,1.306,5.415,1.347,8.179c0.054,1.369-0.083,2.756-0.276,4.097c-0.252,1.347-0.583,2.664-1.217,3.858l-0.07-0.01
		L998.4,507.1899z"/>
	<path d="M1051.7899,304.8c0.3671-1.117,0.614-2.239,0.826-3.35c0.219-1.111,0.373-2.21,0.494-3.31
		c0.293-2.165,0.3049-4.347,0.339-6.457c-0.0341-4.258-0.4191-8.366-1.1541-12.382c-1.2739-8.044-3.938-15.675-6.385-23.289
		c-1.2059-3.81-2.251-7.686-3.364-11.596c-1.1479-3.907-2.4579-7.806-3.9619-11.67c-3.078-7.691-6.483-15.368-10.157-23.03
		c-1.8661-3.815-3.8301-7.602-5.8281-11.395l-1.631-3.041c-0.568-1.088-1.103-2.15-1.643-3.227c-1.067-2.17-2.078-4.369-3.008-6.597
		c-3.732-8.943-6.448-18.431-7.672-28.152c-1.223-9.689-1.102-19.643,0.925-29.197c1.011-4.769,2.383-9.448,4.255-13.918
		c1.826-4.479,4.088-8.736,6.545-12.815c4.984-8.156,10.864-15.624,17.645-22.338c6.828-6.632,14.39-12.718,23.088-17.667
		c8.6929-4.926,18.6949-8.639,29.6969-9.273c2.7321-0.164,5.5181-0.129,8.348,0.06c1.401,0.106,2.814,0.253,4.2319,0.465
		c1.4301,0.181,2.854,0.405,4.2891,0.698c2.8359,0.577,5.713,1.346,8.509,2.365l0.265,0.086c0.172,0.078,0.104,0.049,0.1659,0.066
		l0.1091,0.04l0.396,0.129c0.281,0.083,0.4989,0.141,0.8319,0.27c0.62,0.212,1.2521,0.425,1.8141,0.648
		c1.1599,0.457,2.3309,0.927,3.4969,1.421c4.599,2.03,9.0031,4.74,13.04,8.084c4.0189,3.353,7.723,7.292,10.7419,11.854
		c3.072,4.516,5.472,9.572,7.24,14.739c0.861,2.595,1.6541,5.193,2.229,7.797c0.608,2.61,1.1371,5.193,1.4241,7.786
		c0.746,5.156,0.7579,10.275,0.2059,15.192c-0.528,4.921-1.699,9.618-3.083,14.111c-1.412,4.49-3.204,8.759-5.23,12.858
		c-1.952,4.114-4.2271,8.036-6.5181,11.86l-0.413-0.189c0.688-4.55,1.1261-9.078,1.2581-13.522c0.1439-4.433,0-8.773-0.5741-12.919
		c-1.08-8.271-3.8939-15.598-8.0159-20.895c-4.014-5.374-9.0891-8.969-14.905-11.673c-2.906-1.347-6.0061-2.475-9.2681-3.422
		c-3.302-0.881-6.855-1.415-10.554-1.662c-0.913-0.066-1.837-0.129-2.7729-0.178c-0.4771-0.028-0.8661-0.04-1.2861-0.04h-0.132
		l-0.229-0.029l-0.4249-0.06l-0.437-0.069l-0.104-0.018c0.0229,0.023-0.207-0.072,0.0229,0.052l-0.069,0.035
		c-0.437,0.195-0.827,0.313-1.218,0.494c-0.39,0.178-0.746,0.365-1.1069,0.505c-1.4301,0.666-2.676,0.996-4.146,1.524
		c-2.871,1.048-6.2531,2.682-9.858,4.68c-3.606,1.986-7.441,4.381-10.984,7.243c-3.566,2.882-6.7579,6.198-9.818,9.727
		c-3.037,3.551-6.041,7.407-8.458,12.098c-1.183,2.354-2.1589,4.886-3.1119,7.628c-0.4191,1.369-0.9181,2.811-1.3141,4.297
		c-0.189,0.735-0.3729,1.493-0.5449,2.262c-0.173,0.772-0.38,1.565-0.535,2.36c-1.2689,6.396-1.809,13.832-0.7169,21.472
		c0.2699,1.897,0.6659,3.798,1.1019,5.728c0.219,0.944,0.438,1.932,0.724,2.856l0.1851,0.663c0.057,0.229,0.166,0.531,0.252,0.79
		l0.069,0.198l0.0221,0.089c0,0.011,0.075,0.141,0,0.055l0.1489,0.422l0.2991,0.847c0.8149,2.239,1.573,4.484,2.3949,6.698
		l1.2111,3.333l1.2739,3.298c1.7001,4.378,3.469,8.713,5.3461,13.017c1.809,4.315,3.509,8.708,5.0699,13.178
		c0.7581,2.233,1.5391,4.473,2.2681,6.738l2.349,6.75c1.562,4.516,2.975,9.146,3.738,13.976c0.786,4.837,0.729,9.835,0.396,14.799
		c-0.344,4.978-1.2631,9.948-2.566,14.773c-1.412,4.817-3.2891,9.503-5.902,13.751c-1.269,2.136-2.819,4.117-4.415,5.969
		c-1.694,1.8-3.491,3.5-5.61,4.688l-0.16-0.15L1051.7899,304.8z"/>
	<path d="M1144.75,162.3399c4.502-7.849,10.726-14.768,18.167-20.647c1.8719-1.458,3.812-2.882,5.845-4.18
		c2.0449-1.294,4.158-2.523,6.3619-3.657c4.3981-2.283,9.136-4.194,14.1591-5.639c5.019-1.441,10.312-2.317,15.756-2.641
		c2.7269-0.129,5.4659-0.072,8.2111,0.118c2.7209,0.252,5.4659,0.611,8.152,1.183c2.688,0.586,5.3519,1.269,7.9359,2.145
		c2.572,0.902,5.1101,1.883,7.5571,3c1.2169,0.594,2.4109,1.194,3.5819,1.823c0.604,0.304,1.172,0.635,1.746,0.988l0.844,0.517
		l0.999,0.623l0.672,0.437l0.3561,0.215l0.4939,0.341c0.338,0.23,0.6541,0.465,0.9761,0.707l0.861,0.657
		c1.125,0.87,2.2631,1.771,3.318,2.742c1.068,0.982,2.1069,1.981,3.1121,3.038c0.9929,1.065,1.958,2.159,2.877,3.287
		c1.865,2.259,3.577,4.633,5.1331,7.091c3.1289,4.927,5.73,10.16,7.527,15.541c1.8259,5.38,3.0029,10.86,3.434,16.263
		c0.4709,5.403,0.3511,10.706-0.1541,15.851c-0.5289,5.145-1.533,10.125-2.7169,14.957c-0.631,2.429-1.309,4.812-2.0551,7.168
		c-0.759,2.346-1.5909,4.657-2.47,6.951c-0.855,2.291-1.8311,4.539-2.848,6.761c-1.022,2.228-2.0959,4.416-3.272,6.56
		c-2.274,4.341-4.847,8.555-7.798,12.56c-5.868,8.024-13.0341,15.652-23.082,21.107c-1.2739,0.672-2.572,1.306-3.916,1.889
		c-0.677,0.281-1.36,0.562-2.0659,0.833l-0.937,0.336l-1.119,0.37c-2.819,0.876-5.3971,1.47-7.947,1.906
		c-5.063,0.835-9.795,1.123-14.4,1.197c-4.604,0.083-9.037,0.02-13.424-0.169c-4.375-0.198-8.693-0.488-12.965-0.758
		c-8.5161-0.571-16.8931-1.272-25.1891-1.633c-16.5819-0.747-32.958-0.953-48.834,1.926c-3.9609,0.761-7.854,1.748-11.661,3.023
		c-3.807,1.28-7.5909,2.756-11.174,4.645c-7.188,3.764-13.814,8.903-19.407,15.345l-0.798-0.517
		c2.75-8.455,8.1129-16.229,14.929-22.577c3.462-3.106,7.217-5.94,11.208-8.369c4.0079-2.423,8.205-4.467,12.4939-6.201
		c8.6011-3.428,17.5231-5.862,26.4701-6.669c2.239-0.175,4.4669-0.327,6.694-0.342c2.223-0.017,4.438-0.069,6.655,0.015
		c4.4209,0.135,8.7959,0.344,13.131,0.557c8.688,0.365,17.277,0.146,25.787-1.194c4.2371-0.74,8.457-2.07,12.568-3.996
		c4.105-1.883,8.078-4.111,11.6949-6.169c1.8101-1.074,3.531-2.027,5.082-3.038c1.573-0.97,2.939-2.299,4.014-3.551
		c0.5341-0.623,0.9869-1.243,1.36-1.725c0.098-0.121,0.173-0.247,0.241-0.374c0.109-0.115,0.1731-0.218,0.241-0.33
		c0.0751-0.101,0.144-0.184,0.1951-0.278c0.0229-0.035,0.046-0.104,0.0811-0.121l0.0389-0.061c0-0.011-0.022-0.023-0.028-0.028
		l-0.092-0.066c-0.012-0.023-0.1321,0.012,0.058-0.08l0.339-0.195l0.178-0.106l0.0861-0.04c0.121-0.043-0.603,0.209-0.298,0.089
		c0.0569-0.089,0.1199-0.189,0.1659-0.29c0.1271-0.204,0.2991-0.439,0.4821-0.692c0.3669-0.525,0.838-1.131,1.3779-1.829
		c0.54-0.7,1.0791-1.524,1.7111-2.377c1.212-1.74,2.526-3.781,3.767-5.992c0.6541-1.088,1.264-2.25,1.8779-3.428
		c0.614-1.163,1.1941-2.38,1.7511-3.614c1.1479-2.458,2.147-5.027,2.9509-7.623c0.7931-2.598,1.504-5.19,1.9301-7.737
		c0.4309-2.558,0.7119-5.021,0.8729-7.367c0.275-4.686,0.2061-8.719-0.276-12.354c-0.12-0.91-0.2749-1.803-0.4819-2.693
		c-0.149-0.91-0.425-1.774-0.6321-2.756c-0.481-1.889-1.033-4.016-1.923-6.462c-0.2469-0.6-0.4769-1.24-0.775-1.852
		c-0.069-0.152-0.1489-0.324-0.2059-0.471l-0.098-0.376l-0.053-0.198c-0.045-0.089-0.1479-0.212-0.229-0.313l-0.5291-0.669
		l-0.0569-0.072c-0.0751-0.066,0.361,0.212,0.1539,0.058l-0.0861-0.124l-0.1539-0.258l-0.351-0.511l-0.6721-1.028
		c-0.46-0.689-0.9529-1.346-1.4299-2.018c-1.981-2.627-4.0649-5.285-6.4661-7.967c-2.371-2.699-5.1329-5.32-8.3369-7.556
		c-0.8151-0.54-1.636-1.068-2.479-1.562c-0.438-0.253-0.873-0.5-1.3151-0.735l-1.338-0.637c-1.8199-0.833-3.7209-1.476-5.673-1.938
		c-3.9039-0.936-8.004-1.042-12.047-0.531c-2.0029,0.252-4.041,0.6-6.051,1.036c-2.033,0.439-4.02,1.045-6.006,1.694
		c-1.993,0.629-3.9449,1.421-5.8519,2.274c-0.9591,0.431-1.9241,0.87-2.865,1.329c-0.9181,0.488-1.854,0.982-2.7731,1.504
		c-3.668,2.076-7.205,4.493-10.226,7.41l-0.5901-0.67L1144.75,162.3399z"/>
</g>
</svg>
